<svg id="Группа_1" data-name="Группа 1" xmlns="http://www.w3.org/2000/svg" width="249.841" height="150.234" viewBox="0 0 607 365">
  <defs>
    <style>
      .cls-1, .cls-4, .cls-5 {
        fill: #fff;
      }

      .cls-1, .cls-2, .cls-3, .cls-4 {
        fill-rule: evenodd;
      }

      .cls-2, .cls-3, .cls-6 {
        fill: #e17808;
      }

      .cls-3, .cls-4, .cls-5 {
        stroke: #000;
        stroke-linejoin: round;
        stroke-opacity: 0.24;
        stroke-width: 1px;
      }
    </style>
  </defs>
  <path id="karaoke_" data-name="karaoke " class="cls-1" d="M233.118,277.012l-7.172.9v0.548a4.642,4.642,0,0,1,1.719.373,2.543,2.543,0,0,1,1.021.994,3.913,3.913,0,0,1,.547,1.691,34.821,34.821,0,0,1,.125,3.58v19.52q0,2.187-.112,3.344a5.434,5.434,0,0,1-.386,1.728,2.572,2.572,0,0,1-1.046,1.231,6.461,6.461,0,0,1-2.142.559V312h11.007v-0.523a5.133,5.133,0,0,1-2.565-1.019,2.581,2.581,0,0,1-.772-1.3,11,11,0,0,1-.2-2.472l-0.025-1.888v-1.814l1.517-1.664,6.018,6.674,0.523,0.6a2.306,2.306,0,0,1,.722,1.507,1.159,1.159,0,0,1-.6,1.037,3.945,3.945,0,0,1-1.483.345V312H251.5v-0.523a6.4,6.4,0,0,1-2.437-.618,8.784,8.784,0,0,1-1.418-.939q-0.6-.5-1.939-1.83l-1.119-1.145q-0.249-.249-1.045-1.121l-6.416-7.221,2.71-2.914,1-1.121A13.553,13.553,0,0,1,243.758,292a6.046,6.046,0,0,1,2.932-.618v-0.548H237.1v0.548a6.289,6.289,0,0,1,1.777.27,1.494,1.494,0,0,1,1.1,1.473,2.877,2.877,0,0,1-.473,1.532,20.12,20.12,0,0,1-1.865,2.328l-4.526,4.955V277.012Zm37.8,33.668a2.257,2.257,0,0,1-1.207.274,1.983,1.983,0,0,1-2.042-1.768,16.527,16.527,0,0,1-.2-3.187v-9.214a10.976,10.976,0,0,0-.2-2.515,3.955,3.955,0,0,0-2.02-2.391,11.111,11.111,0,0,0-2.794-1.021,13.9,13.9,0,0,0-3.218-.4,14.309,14.309,0,0,0-2.806.287,10.969,10.969,0,0,0-2.407.734q-1.8.873-1.8,2.142a1.885,1.885,0,0,0,.573,1.407,1.948,1.948,0,0,0,1.419.56,1.8,1.8,0,0,0,1.793-1.17l0.623-1.444a3.2,3.2,0,0,1,1.195-1.445,3.243,3.243,0,0,1,1.818-.523,3.753,3.753,0,0,1,1.631.374,3.6,3.6,0,0,1,1.283,1,6.714,6.714,0,0,1,1.1,4.258,6.136,6.136,0,0,1-.3,2.142,3,3,0,0,1-1.1,1.345,6.647,6.647,0,0,1-1.731.9q-1.034.374-3.2,0.921a16.5,16.5,0,0,0-2.814.934,5.911,5.911,0,0,0-1.718,1.233,4.842,4.842,0,0,0-1.32,3.461,4.362,4.362,0,0,0,1.609,3.561,6.655,6.655,0,0,0,4.352,1.32,7.66,7.66,0,0,0,3.765-.9,16.436,16.436,0,0,0,2.519-1.968,6.579,6.579,0,0,0,1.6,1.993,4.794,4.794,0,0,0,2.942.871q3.213,0,4.109-2.615l-0.423-.249A4.293,4.293,0,0,1,270.92,310.68Zm-7.209-6.748a11.944,11.944,0,0,1-.769,4.831,4.7,4.7,0,0,1-1.626,2.029,3.92,3.92,0,0,1-2.3.76,2.879,2.879,0,0,1-2.3-1.071,4.057,4.057,0,0,1-.906-2.714,5.191,5.191,0,0,1,1.167-3.362,6.638,6.638,0,0,1,1.266-1.2,26.136,26.136,0,0,1,2.507-1.469,16.627,16.627,0,0,0,2.954-1.967v4.159Zm14.875-13.473-6.42.9v0.523a4.49,4.49,0,0,1,1.718.384,2.631,2.631,0,0,1,1.021,1,3.871,3.871,0,0,1,.548,1.673,34.526,34.526,0,0,1,.125,3.58v6.12q0,2.179-.112,3.332a5.4,5.4,0,0,1-.386,1.722,2.566,2.566,0,0,1-1.046,1.227,6.469,6.469,0,0,1-2.142.557V312H282.9v-0.523a5.133,5.133,0,0,1-2.565-1.02,2.586,2.586,0,0,1-.772-1.305,11.017,11.017,0,0,1-.2-2.475l-0.025-1.89v-4.651a15.764,15.764,0,0,1,.946-6.093q0.947-2.188,2.64-2.189a2.892,2.892,0,0,1,2.166.97l0.772,0.846a1.913,1.913,0,0,0,1.47.7,1.623,1.623,0,0,0,1.182-.448,1.527,1.527,0,0,0,.461-1.145,2,2,0,0,0-.772-1.592,3.7,3.7,0,0,0-2.465-.722,7.926,7.926,0,0,0-4.707,1.469,7.235,7.235,0,0,0-2.017,2.363,20.893,20.893,0,0,0-.428-3.832h0ZM309.4,310.68a2.263,2.263,0,0,1-1.208.274,1.983,1.983,0,0,1-2.042-1.768,16.552,16.552,0,0,1-.2-3.187v-9.214a10.962,10.962,0,0,0-.2-2.515,3.955,3.955,0,0,0-2.02-2.391,11.111,11.111,0,0,0-2.794-1.021,13.9,13.9,0,0,0-3.218-.4,14.309,14.309,0,0,0-2.806.287,10.969,10.969,0,0,0-2.407.734q-1.8.873-1.8,2.142a1.885,1.885,0,0,0,.573,1.407,1.948,1.948,0,0,0,1.419.56,1.8,1.8,0,0,0,1.793-1.17l0.623-1.444a3.2,3.2,0,0,1,1.2-1.445,3.243,3.243,0,0,1,1.818-.523,3.753,3.753,0,0,1,1.631.374,3.6,3.6,0,0,1,1.283,1,6.714,6.714,0,0,1,1.1,4.258,6.136,6.136,0,0,1-.3,2.142,3,3,0,0,1-1.1,1.345,6.647,6.647,0,0,1-1.731.9q-1.034.374-3.2,0.921a16.529,16.529,0,0,0-2.814.934,5.911,5.911,0,0,0-1.718,1.233,4.842,4.842,0,0,0-1.32,3.461,4.362,4.362,0,0,0,1.609,3.561,6.655,6.655,0,0,0,4.352,1.32,7.666,7.666,0,0,0,3.766-.9,16.485,16.485,0,0,0,2.519-1.968,6.564,6.564,0,0,0,1.6,1.993,4.794,4.794,0,0,0,2.942.871q3.213,0,4.109-2.615l-0.423-.249A4.293,4.293,0,0,1,309.4,310.68Zm-7.21-6.748a11.944,11.944,0,0,1-.769,4.831,4.7,4.7,0,0,1-1.626,2.029,3.92,3.92,0,0,1-2.3.76,2.879,2.879,0,0,1-2.3-1.071,4.057,4.057,0,0,1-.906-2.714,5.191,5.191,0,0,1,1.167-3.362,6.638,6.638,0,0,1,1.266-1.2,26.136,26.136,0,0,1,2.507-1.469,16.591,16.591,0,0,0,2.954-1.967v4.159Zm9.763,1.344a10.832,10.832,0,0,0,2.1,3.337,12.078,12.078,0,0,0,17.656,0,10.257,10.257,0,0,0-.15-14.319,11.737,11.737,0,0,0-17.357,0A10.146,10.146,0,0,0,311.949,305.276Zm5.864-11.309q2.041-2.959,4.856-2.96a6.028,6.028,0,0,1,5,2.811,12.18,12.18,0,0,1,1.706,3.569,14.038,14.038,0,0,1,.635,4.117,14.866,14.866,0,0,1-.6,4.067,11.674,11.674,0,0,1-1.569,3.494,6.888,6.888,0,0,1-2.192,2.089,5.091,5.091,0,0,1-2.615.746q-3.162,0-5.353-3.358a13.244,13.244,0,0,1-1.943-7.337,12.329,12.329,0,0,1,2.067-7.238h0ZM343.7,277.012l-7.171.9v0.548a4.636,4.636,0,0,1,1.718.373,2.543,2.543,0,0,1,1.021.994,3.926,3.926,0,0,1,.548,1.691,34.9,34.9,0,0,1,.124,3.58v19.52q0,2.187-.112,3.344a5.406,5.406,0,0,1-.386,1.728,2.567,2.567,0,0,1-1.046,1.231,6.454,6.454,0,0,1-2.141.559V312h11.007v-0.523a5.125,5.125,0,0,1-2.565-1.019,2.567,2.567,0,0,1-.772-1.3,10.985,10.985,0,0,1-.2-2.472L343.7,304.8v-1.814l1.518-1.664,6.018,6.674,0.522,0.6a2.306,2.306,0,0,1,.722,1.507,1.159,1.159,0,0,1-.6,1.037,3.945,3.945,0,0,1-1.483.345V312h11.679v-0.523a6.4,6.4,0,0,1-2.437-.618,8.729,8.729,0,0,1-1.417-.939q-0.6-.5-1.94-1.83l-1.119-1.145q-0.249-.249-1.044-1.121L347.7,298.6l2.711-2.914,1-1.121A13.553,13.553,0,0,1,354.34,292a6.039,6.039,0,0,1,2.931-.618v-0.548h-9.587v0.548a6.3,6.3,0,0,1,1.778.27,1.494,1.494,0,0,1,1.1,1.473,2.869,2.869,0,0,1-.473,1.532,20.12,20.12,0,0,1-1.865,2.328l-4.526,4.955V277.012Zm37.392,21.441a7.517,7.517,0,0,0-4.682-7.284,9.44,9.44,0,0,0-3.685-.71,10.391,10.391,0,0,0-6.649,2.316,10.614,10.614,0,0,0-4.01,8.791,11.189,11.189,0,0,0,2.117,6.923,9.337,9.337,0,0,0,3.711,2.988,12.9,12.9,0,0,0,5.254.971,9.745,9.745,0,0,0,5.665-1.481,6.941,6.941,0,0,0,2.777-4.4l-0.523-.174a6.993,6.993,0,0,1-1.539,2.789,5.466,5.466,0,0,1-2,1.245,7.221,7.221,0,0,1-2.543.448,8.042,8.042,0,0,1-6.23-2.988,10.281,10.281,0,0,1-1.725-3.436,14.378,14.378,0,0,1-.633-4.234q0-.548.1-1.768h14.593Zm-14.444-.971a8.2,8.2,0,0,1,1.9-4.632,4.817,4.817,0,0,1,3.731-1.843,4.359,4.359,0,0,1,2.38.71,5.213,5.213,0,0,1,1.784,1.93,9.428,9.428,0,0,1,.918,3.835H366.647Z"/>
  <path id="_" data-name="&amp; " class="cls-2" d="M410.706,289.837a11.062,11.062,0,0,0,3.321-2.951,5.993,5.993,0,0,0,1.023-3.449,5.394,5.394,0,0,0-2-4.321,7.632,7.632,0,0,0-5.089-1.68,8.051,8.051,0,0,0-4.067.971,6.2,6.2,0,0,0-2.569,2.839,6.423,6.423,0,0,0-.7,2.863,11.689,11.689,0,0,0,1.519,5.255,31.007,31.007,0,0,0,2.191,3.461l-0.4.274a32.378,32.378,0,0,0-3.25,2.353,12.98,12.98,0,0,0-2.029,2.154,10.677,10.677,0,0,0-2.142,6.475,8.39,8.39,0,0,0,2.219,5.977,8.258,8.258,0,0,0,3.079,2.042,10.479,10.479,0,0,0,3.9.747,10.05,10.05,0,0,0,4.126-.859,9.869,9.869,0,0,0,3.378-2.478,27.149,27.149,0,0,0,1.8-2.391,23.7,23.7,0,0,0,3.861,3.76,9.9,9.9,0,0,0,2.715,1.445,8.68,8.68,0,0,0,2.865.523q4.11,0,5.355-4.234l-0.5-.224a4.857,4.857,0,0,1-1.27,1.943,2.719,2.719,0,0,1-1.793.6,4.236,4.236,0,0,1-2.054-.585,13.775,13.775,0,0,1-2.478-1.88q-1-.921-2.278-2.353t-2.229-2.677q1.2-2.168,1.818-3.512l0.772-1.593a18.889,18.889,0,0,1,3.137-5.08,4.444,4.444,0,0,1,1.37-.885,6.758,6.758,0,0,1,1.868-.385v-0.5H416.5V292q3.461,0.5,3.46,2.907a8.221,8.221,0,0,1-.7,2.957,55.111,55.111,0,0,1-2.44,4.994l-8.334-11.555q0.6-.423,2.222-1.469h0Zm3.866,16.759a21.485,21.485,0,0,1-1.369,1.967,8.432,8.432,0,0,1-1.22,1.221,6.624,6.624,0,0,1-6.933.821,6.6,6.6,0,0,1-2.277-1.743,9.446,9.446,0,0,1-1.619-3.038,11.665,11.665,0,0,1-.6-3.71,11.1,11.1,0,0,1,1.139-5.055,8.6,8.6,0,0,1,3.195-3.537Zm-9.092-19.4a18.939,18.939,0,0,1-1.65-2.938,5.653,5.653,0,0,1-.434-2.142,4.052,4.052,0,0,1,1.067-2.913,3.7,3.7,0,0,1,2.806-1.121,3.912,3.912,0,0,1,3.2,1.469,6.108,6.108,0,0,1,1.192,3.96,9.168,9.168,0,0,1-.87,3.959,7.448,7.448,0,0,1-1.032,1.669,12.122,12.122,0,0,1-1.752,1.618q-1.365-1.767-2.53-3.561h0Z"/>
  <path id="_ArtBar" data-name=" ArtBar" class="cls-1" d="M477.124,311.427a13.731,13.731,0,0,1-2.316-.411,4.418,4.418,0,0,1-1.369-.684,6.266,6.266,0,0,1-1.569-1.918,41.257,41.257,0,0,1-1.943-4.233L459.1,278.008h-1.419l-9.115,23.483q-1.245,3.213-2,4.819A14.114,14.114,0,0,1,445,308.937a6.66,6.66,0,0,1-1.942,1.843,5.165,5.165,0,0,1-2.316.647V312H451.9v-0.573a5.016,5.016,0,0,1-2.49-.8,3.57,3.57,0,0,1-1.108-1.3,3.69,3.69,0,0,1-.411-1.718,12.315,12.315,0,0,1,1.121-4.308l0.622-1.544,1.3-3.436h10.957l2.391,5.877,0.423,1.045a7.817,7.817,0,0,1,.7,2.74,3.023,3.023,0,0,1-1.544,2.689,7.479,7.479,0,0,1-3.088.747V312h16.361v-0.573Zm-25.8-14.119,4.931-12.9,5.23,12.9H451.325Zm32.132-6.849-6.419.9v0.523a4.5,4.5,0,0,1,1.718.384,2.644,2.644,0,0,1,1.021,1,3.885,3.885,0,0,1,.548,1.673,34.608,34.608,0,0,1,.124,3.58v6.12q0,2.179-.112,3.332a5.37,5.37,0,0,1-.386,1.722,2.561,2.561,0,0,1-1.046,1.227,6.462,6.462,0,0,1-2.141.557V312h11.007v-0.523a5.124,5.124,0,0,1-2.565-1.02,2.573,2.573,0,0,1-.772-1.305,11,11,0,0,1-.2-2.475l-0.024-1.89v-4.651a15.764,15.764,0,0,1,.946-6.093q0.946-2.188,2.639-2.189a2.894,2.894,0,0,1,2.167.97l0.772,0.846a1.912,1.912,0,0,0,1.469.7,1.625,1.625,0,0,0,1.183-.448,1.527,1.527,0,0,0,.461-1.145,2,2,0,0,0-.772-1.592,3.708,3.708,0,0,0-2.466-.722,7.923,7.923,0,0,0-4.706,1.469,7.223,7.223,0,0,0-2.017,2.363,20.817,20.817,0,0,0-.429-3.832h0Zm16.977-6.1h-0.928l-0.25.822a13.01,13.01,0,0,1-.953,2.353,9.954,9.954,0,0,1-1.328,1.831,7.01,7.01,0,0,1-2.991,2.017v0.4h2.665V306.87a13.376,13.376,0,0,0,.224,3,2.762,2.762,0,0,0,.946,1.432,6.548,6.548,0,0,0,4.283,1.145,8.418,8.418,0,0,0,3.7-.722,5.164,5.164,0,0,0,2.3-2.216l-0.373-.324a6.406,6.406,0,0,1-1.638,1.681,3.48,3.48,0,0,1-1.862.461,3.976,3.976,0,0,1-1.663-.349,3.155,3.155,0,0,1-1.24-.971,6.061,6.061,0,0,1-.894-3.736V291.779h6.325v-0.946h-6.325v-6.475ZM525.449,312a31.5,31.5,0,0,0,5.715-.4,9.143,9.143,0,0,0,3.5-1.42,7.769,7.769,0,0,0,2.527-3.026,9.4,9.4,0,0,0,.909-4.146,9.9,9.9,0,0,0-.884-4.171,8.829,8.829,0,0,0-2.478-3.225,8.426,8.426,0,0,0-2.39-1.32,22.6,22.6,0,0,0-3.711-.871,18.94,18.94,0,0,0,2.665-1.133,6.632,6.632,0,0,0,1.643-1.283,8.036,8.036,0,0,0,1.133-8.989,6.932,6.932,0,0,0-2.5-2.615,10.712,10.712,0,0,0-4.707-1.345q-0.773-.05-3.262-0.05H507.245v0.573a8.267,8.267,0,0,1,2.316.4,3.96,3.96,0,0,1,1.569,1.046,4.038,4.038,0,0,1,1.071,2.017,18.967,18.967,0,0,1,.274,3.786v18.353a18.948,18.948,0,0,1-.274,3.785,4.034,4.034,0,0,1-1.071,2.017,4.223,4.223,0,0,1-1.556,1.033,7.849,7.849,0,0,1-2.329.411V312h18.2Zm-5.2-33.22a19.353,19.353,0,0,1,3.972.3,5.669,5.669,0,0,1,2.328,1.121,6.571,6.571,0,0,1,1.881,2.652,9.276,9.276,0,0,1,.709,3.6,7.708,7.708,0,0,1-.685,3.275,6.235,6.235,0,0,1-1.954,2.428,5.826,5.826,0,0,1-1.482.747,12.8,12.8,0,0,1-2.129.473,22.571,22.571,0,0,1-2.939.2h-2.017V278.78h2.316Zm2.142,15.564q4.781,0,7.022,1.843a6.748,6.748,0,0,1,1.943,2.851,11,11,0,0,1,.722,4.022,7.81,7.81,0,0,1-2.329,5.977,8.873,8.873,0,0,1-6.337,2.191q-3.089,0-4.358-1.668a5.069,5.069,0,0,1-.859-1.943,13.963,13.963,0,0,1-.262-3.013v-10.26h4.458Zm38.4,16.336a2.263,2.263,0,0,1-1.208.274,1.983,1.983,0,0,1-2.042-1.768,16.552,16.552,0,0,1-.2-3.187v-9.214a10.962,10.962,0,0,0-.2-2.515,3.955,3.955,0,0,0-2.02-2.391,11.111,11.111,0,0,0-2.794-1.021,13.9,13.9,0,0,0-3.218-.4,14.3,14.3,0,0,0-2.805.287,10.935,10.935,0,0,0-2.407.734q-1.8.873-1.8,2.142a1.885,1.885,0,0,0,.573,1.407,1.949,1.949,0,0,0,1.42.56,1.8,1.8,0,0,0,1.793-1.17l0.622-1.444a3.206,3.206,0,0,1,1.2-1.445,3.239,3.239,0,0,1,1.817-.523,3.746,3.746,0,0,1,1.631.374,3.587,3.587,0,0,1,1.283,1,6.714,6.714,0,0,1,1.1,4.258,6.133,6.133,0,0,1-.3,2.142,3,3,0,0,1-1.1,1.345,6.647,6.647,0,0,1-1.731.9q-1.033.374-3.2,0.921a16.482,16.482,0,0,0-2.813.934,5.9,5.9,0,0,0-1.719,1.233,4.842,4.842,0,0,0-1.32,3.461,4.365,4.365,0,0,0,1.609,3.561,6.655,6.655,0,0,0,4.352,1.32,7.663,7.663,0,0,0,3.766-.9,16.485,16.485,0,0,0,2.519-1.968,6.564,6.564,0,0,0,1.6,1.993,4.8,4.8,0,0,0,2.943.871q3.211,0,4.108-2.615l-0.423-.249A4.293,4.293,0,0,1,560.786,310.68Zm-7.21-6.748a11.926,11.926,0,0,1-.769,4.831,4.686,4.686,0,0,1-1.626,2.029,3.917,3.917,0,0,1-2.3.76,2.879,2.879,0,0,1-2.3-1.071,4.057,4.057,0,0,1-.906-2.714,5.191,5.191,0,0,1,1.167-3.362,6.668,6.668,0,0,1,1.266-1.2,26.136,26.136,0,0,1,2.507-1.469,16.591,16.591,0,0,0,2.954-1.967v4.159Zm14.875-13.473-6.42.9v0.523a4.5,4.5,0,0,1,1.719.384,2.644,2.644,0,0,1,1.021,1,3.871,3.871,0,0,1,.547,1.673,34.526,34.526,0,0,1,.125,3.58v6.12q0,2.179-.112,3.332a5.4,5.4,0,0,1-.386,1.722,2.566,2.566,0,0,1-1.046,1.227,6.469,6.469,0,0,1-2.142.557V312h11.007v-0.523a5.133,5.133,0,0,1-2.565-1.02,2.586,2.586,0,0,1-.772-1.305,11.017,11.017,0,0,1-.2-2.475l-0.025-1.89v-4.651a15.764,15.764,0,0,1,.946-6.093q0.946-2.188,2.64-2.189a2.9,2.9,0,0,1,2.167.97l0.772,0.846a1.909,1.909,0,0,0,1.469.7,1.627,1.627,0,0,0,1.183-.448,1.526,1.526,0,0,0,.46-1.145,2,2,0,0,0-.772-1.592,3.7,3.7,0,0,0-2.465-.722,7.921,7.921,0,0,0-4.706,1.469,7.225,7.225,0,0,0-2.018,2.363,20.806,20.806,0,0,0-.428-3.832h0Z"/>
  <path id="S" class="cls-3" d="M94.193,59.432q-21.764,0-36.448,12.1T43.057,106.488q0,14.42,6.256,25.16A62.583,62.583,0,0,0,65.5,150.008a301.722,301.722,0,0,0,25.976,17.408q22.032,13.331,32.232,23.936a35.9,35.9,0,0,1,10.2,25.84q0,17.952-10.336,27.064t-25.024,9.112q-24.212,0-35.9-17.136t-13.6-44.608H42.785q0,50.323-1.088,65.28h6.256a32.4,32.4,0,0,1,2.176-9.112q1.358-2.856,3.808-2.856,3.264,0,9.248,3.808A76.136,76.136,0,0,0,79.1,256.088q8.294,2.715,21.352,2.72,25.021,0,41.344-13.464t16.32-38.216q0-13.872-5.984-24.208a66.31,66.31,0,0,0-15.912-18.36,272.991,272.991,0,0,0-27.064-18.632l-7.888-4.9q-13.6-8.429-20.944-13.872a47.3,47.3,0,0,1-12.1-13.056,33.146,33.146,0,0,1-4.76-17.952q0-13.872,9.248-22.712T96.641,64.6q20.942,0,31.96,15.1t12.648,37.128h6.256q0-39.71,1.36-55.488h-6.256a32.521,32.521,0,0,1-2.176,9.112Q139.07,73.3,136.625,73.3q-3.264,0-9.248-3.808a70.141,70.141,0,0,0-14.28-7.48q-6.936-2.582-18.9-2.584h0Z"/>
  <path id="e" class="cls-4" d="M425.666,255.72q15.54,0,24.975-9.25t9.435-27.38H438.061q0,8.7-3.33,13.6a10.413,10.413,0,0,1-9.065,4.9q-7.958,0-11.378-6.753T410.681,210.4h49.4v-5.55q0-26.085-8.7-38.48t-26.455-12.4q-37.372,0-37.37,50.875,0,25.9,9.527,38.387t28.583,12.488h0Zm-14.8-61.42q0.555-10.914,3.885-16.558a11.024,11.024,0,0,1,10.175-5.642q11.837,0,11.84,22.2h-25.9Z"/>
  <path id="m" class="cls-4" d="M162.744,254.5h22.2V194.56q0-8.506,3.792-13.968t9.528-5.457q5.731,0,8.417,3.977t2.683,13.228V254.5h21.83V193.08q0-7.77,3.977-12.858t9.528-5.087q5.731,0,8.325,3.977t2.59,13.228V254.5h22.2V186.235q0-31.262-24.05-31.265a27.354,27.354,0,0,0-14.615,3.978A32.886,32.886,0,0,0,228.6,169.215q-5.369-14.244-20.9-14.245a23.221,23.221,0,0,0-13.413,3.978,33.7,33.7,0,0,0-9.712,10.267h-1.11l-2.22-12.025h-18.5V254.5Z"/>
  <rect id="Прямоугольник_1" data-name="Прямоугольник 1" class="cls-5" x="354" y="104" width="17" height="151"/>
  <path id="Эллипс_2" data-name="Эллипс 2" class="cls-2" d="M316.5,240a24.588,24.588,0,0,1,22.533,13.955c0.079,0.175.232,0.526,0.232,0.526l-45.542.028s0.14-.324.212-0.484A24.582,24.582,0,0,1,316.5,240Z"/>
  <rect id="Прямоугольник_скругл._углы_2" data-name="Прямоугольник, скругл. углы 2" class="cls-6" x="313" y="194" width="6" height="54" rx="3" ry="3"/>
  <rect id="Прямоугольник_скругл._углы_3" data-name="Прямоугольник, скругл. углы 3" class="cls-6" x="310" y="209" width="12" height="20" rx="5.5" ry="5.5"/>
  <path id="Прямоугольник_5_копия_3" data-name="Прямоугольник 5 копия 3" class="cls-2" d="M314,99h4V88s0.271,0,.407,0q1.145,0.018,2.265.138l0.284,0.032L321,99h4l-0.1-10.034,0.343,0.1a24.857,24.857,0,0,1,2.351.842c0.125,0.052.374,0.159,0.374,0.159L328,99h3l-0.01-7.365,0.251,0.155A24.983,24.983,0,0,1,343,113v2.024l-53-.063V113a24.972,24.972,0,0,1,10.748-20.543l0.257-.176L301,99h3l-0.008-8.452,0.214-.1c0.917-.44,2.839-1.152,2.839-1.152L307,99h4l0.067-10.692,2.964-.273Zm0,82h4v11l0.407,0q1.145-.018,2.265-0.138l0.284-.032L321,181h4l-0.1,10.034,0.343-.1a24.86,24.86,0,0,0,2.351-.843c0.125-.052.374-0.159,0.374-0.159L328,181h3l-0.01,7.365,0.251-.155A24.985,24.985,0,0,0,343,167v-2.024l-53,.063V167a24.974,24.974,0,0,0,10.748,20.543l0.257,0.176L301,181h3l-0.008,8.452,0.214,0.1c0.917,0.44,2.839,1.152,2.839,1.152L307,181h4l0.067,10.692,2.964,0.273Zm-24-67h3v52h-3V114Zm50,0h3v52h-3V114Zm-26,0h5v52h-5V114Zm-22,7h49v5H292v-5Zm0,11h49v5H292v-5Zm0,11h49v5H292v-5Zm0,11h49v5H292v-5Z"/>
</svg>
