<?xml version="1.0"?>
<svg xmlns="http://www.w3.org/2000/svg" xmlns:xlink="http://www.w3.org/1999/xlink" version="1.1" id="Layer_1" x="0px" y="0px" viewBox="0 0 349.534 349.534" style="enable-background:new 0 0 349.534 349.534;" xml:space="preserve" width="512px" height="512px"><g transform="matrix(0.598956 0 0 0.598956 70.0892 70.0892)"><g>
	<g>
		<path d="M343.857,161.435L217.598,35.177c-3.698-3.698-8.429-5.677-13.503-5.677c-5.075,0-9.891,1.978-13.503,5.677    l-11.525,11.525c-3.698,3.354-5.677,8.429-5.677,13.503s1.978,9.891,5.677,13.503l73.536,73.536H18.921    C8.515,147.244,0,155.415,0,166.166v16.083C0,193,8.773,201.945,18.921,201.945h234.541l-74.138,74.138    c-3.698,3.698-5.677,8.429-5.677,13.503c0,5.075,1.978,9.891,5.677,13.503l11.525,11.267c3.698,3.698,8.429,5.677,13.503,5.677    c5.075,0,9.891-1.978,13.245-5.333l126.258-126.258c3.698-3.698,5.677-8.429,5.677-13.503    C349.532,169.864,347.554,165.133,343.857,161.435z M340.158,184.313L213.9,310.572c-2.494,2.494-5.935,3.956-9.547,3.956    c-3.698,0-7.052-1.376-9.547-3.956l-11.525-11.267c-2.494-2.494-3.956-5.935-3.956-9.547c0-3.612,1.376-7.052,3.956-9.547    l79.213-78.955c0.86-0.86,1.118-1.978,0.602-3.097c-0.258-1.118-1.376-1.72-2.494-1.72H19.265c-7.052,0-13.245-6.45-13.245-14.105    V166.25c0-7.311,5.677-13.245,13.245-13.245v-0.258h240.476c1.118,0,1.978-0.602,2.494-1.72c0.602-1.118,0.258-2.236-0.602-3.097    l-78.352-78.352c-2.494-2.494-3.956-5.935-3.956-9.547c0-3.612,1.376-7.052,3.956-9.547l11.525-11.525    c2.494-2.494,5.935-3.956,9.547-3.956c3.698,0,7.052,1.376,9.547,3.956l126.258,126.259c2.494,2.494,3.956,5.935,3.956,9.547    C344.114,178.379,342.738,181.733,340.158,184.313z" data-original="#000000" class="active-path" data-old_color="#000000" fill="#FFFFFF"/>
	</g>
</g><g>
	<g>
		<path d="M331.127,167.8L211.406,48.078c-3.698-3.698-10.407-3.698-14.105,0l-5.333,5.333c-1.72,1.978-2.838,4.214-2.838,7.052    c0,2.838,0.86,5.074,2.838,7.052l93.834,93.834H49.282c-1.72,0-2.838,1.118-2.838,2.838s1.118,2.838,2.838,2.838h242.97    c1.118,0,1.978-0.86,2.494-1.72c0.602-0.86,0.258-1.978-0.258-2.838l-0.602-0.86l-0.258-0.258l-97.79-98.134    c-0.602-0.86-1.118-1.978-1.118-3.097s0.258-2.236,1.118-3.097l5.333-5.333c1.72-1.72,4.472-1.72,6.192,0l119.808,119.808    c0.86,0.602,1.118,1.72,1.118,3.097c0,1.118-0.258,2.236-1.118,3.097L207.363,297.499c-1.72,1.72-4.472,1.72-6.192,0l-5.333-5.333    c-1.72-1.72-1.72-4.214,0-5.935l97.532-97.532l1.376-1.118c0.86-0.86,1.118-1.978,0.86-3.097    c-0.258-1.118-1.376-1.978-2.494-1.978H23.308c-2.494,0-4.214-2.494-4.214-4.817v-7.569c0-2.236,1.72-3.956,4.214-3.956h6.794    c1.72,0,2.838-1.118,2.838-2.838s-1.118-2.838-2.838-2.838h-6.794c-5.677,0-9.891,4.214-9.891,9.547v7.569    c0,5.677,4.472,10.407,9.891,10.407H286.06l-94.178,94.178c-3.956,3.956-3.956,10.149,0,14.105l5.333,5.333    c1.978,1.72,4.472,2.838,7.052,2.838c2.838,0,5.075-1.118,7.052-2.494l119.808-119.808c1.978-1.978,2.838-4.472,2.838-7.052    C333.965,172.273,333.105,169.778,331.127,167.8z" data-original="#000000" class="active-path" data-old_color="#000000" fill="#FFFFFF"/>
	</g>
</g></g> </svg>
